# Blender 4.5.3 LTS
# www.blender.org
mtllib MuzzleFlasjCircle.mtl
o MuzzleFlashCircle
v 0.475745 0.000000 -1.974308
v 0.475745 0.385168 -1.936372
v 0.475745 0.755535 -1.824023
v 0.475745 1.096867 -1.641577
v 0.475745 1.396046 -1.396046
v 0.475745 1.641577 -1.096867
v 0.475745 1.824023 -0.755535
v 0.475745 1.936372 -0.385168
v 0.475745 1.974308 0.000000
v 0.475745 1.936372 0.385168
v 0.475745 1.824023 0.755535
v 0.475745 1.641577 1.096867
v 0.475745 1.396046 1.396046
v 0.475745 1.096867 1.641577
v 0.475745 0.755535 1.824023
v 0.475745 0.385168 1.936372
v 0.475745 0.000000 1.974308
v 0.475745 -0.385168 1.936372
v 0.475745 -0.755535 1.824023
v 0.475745 -1.096867 1.641577
v 0.475745 -1.396046 1.396046
v 0.475745 -1.641577 1.096867
v 0.475745 -1.824023 0.755535
v 0.475745 -1.936372 0.385168
v 0.475745 -1.974308 0.000000
v 0.475745 -1.936372 -0.385168
v 0.475745 -1.824023 -0.755535
v 0.475745 -1.641577 -1.096867
v 0.475745 -1.396046 -1.396046
v 0.475745 -1.096867 -1.641577
v 0.475745 -0.755535 -1.824023
v 0.475745 -0.385168 -1.936372
v -0.058678 0.000000 -0.202582
v -0.058678 0.039522 -0.198690
v -0.058678 0.077525 -0.187162
v -0.058678 0.112549 -0.168441
v -0.058678 0.143247 -0.143247
v -0.058678 0.168441 -0.112549
v -0.058678 0.187162 -0.077525
v -0.058678 0.198690 -0.039522
v -0.058678 0.202582 -0.000000
v -0.058678 0.198690 0.039522
v -0.058678 0.187162 0.077525
v -0.058678 0.168441 0.112549
v -0.058678 0.143247 0.143247
v -0.058678 0.112549 0.168441
v -0.058678 0.077525 0.187162
v -0.058678 0.039522 0.198690
v -0.058678 0.000000 0.202582
v -0.058678 -0.039522 0.198690
v -0.058678 -0.077525 0.187162
v -0.058678 -0.112549 0.168441
v -0.058678 -0.143247 0.143247
v -0.058678 -0.168441 0.112549
v -0.058678 -0.187162 0.077525
v -0.058678 -0.198690 0.039522
v -0.058678 -0.202582 -0.000000
v -0.058678 -0.198690 -0.039522
v -0.058678 -0.187162 -0.077525
v -0.058678 -0.168441 -0.112549
v -0.058678 -0.143247 -0.143247
v -0.058678 -0.112549 -0.168441
v -0.058678 -0.077525 -0.187162
v -0.058678 -0.039522 -0.198690
v -0.000000 0.840255 0.348045
v -0.000000 0.756210 0.505283
v 0.000000 -0.909486 0.000000
v 0.000000 -0.892010 -0.177432
v -0.000000 0.643104 0.643103
v 0.000000 -0.840255 -0.348045
v -0.000000 0.505283 0.756210
v 0.000000 -0.756210 -0.505283
v -0.000000 0.348045 0.840255
v 0.000000 -0.000000 -0.909486
v -0.000000 0.177432 -0.892010
v 0.000000 -0.643103 -0.643104
v -0.000000 0.177432 0.892010
v -0.000000 0.348045 -0.840255
v 0.000000 -0.505283 -0.756210
v 0.000000 -0.000000 0.909486
v -0.000000 0.505283 -0.756210
v 0.000000 -0.348045 -0.840255
v 0.000000 -0.177432 0.892010
v -0.000000 0.643104 -0.643104
v 0.000000 -0.177432 -0.892010
v 0.000000 -0.348045 0.840255
v -0.000000 0.756210 -0.505283
v 0.000000 -0.505283 0.756210
v -0.000000 0.840255 -0.348045
v 0.000000 -0.643103 0.643103
v -0.000000 0.892010 -0.177432
v 0.000000 -0.756210 0.505283
v -0.000000 0.909486 0.000000
v 0.000000 -0.840255 0.348045
v -0.000000 0.892010 0.177432
v 0.000000 -0.892010 0.177432
vn -0.9130 -0.0000 -0.4079
vn -0.9130 0.0796 -0.4001
vn -0.9130 0.1561 -0.3769
vn -0.9130 0.2266 -0.3392
vn -0.9130 0.2884 -0.2884
vn -0.9130 0.3392 -0.2266
vn -0.9130 0.3769 -0.1561
vn -0.9130 0.4001 -0.0796
vn -0.9130 0.4079 -0.0000
vn -0.9130 0.4001 0.0796
vn -0.9130 0.3769 0.1561
vn -0.9130 0.3392 0.2266
vn -0.9130 0.2884 0.2884
vn -0.9130 0.2266 0.3392
vn -0.9130 0.1561 0.3769
vn -0.9130 0.0796 0.4001
vn -0.9130 -0.0000 0.4079
vn -0.9130 -0.0796 0.4001
vn -0.9130 -0.1561 0.3769
vn -0.9130 -0.2266 0.3392
vn -0.9130 -0.2884 0.2884
vn -0.9130 -0.3392 0.2266
vn -0.9130 -0.3769 0.1561
vn -0.9130 -0.4001 0.0796
vn -0.9130 -0.4079 -0.0000
vn -0.9130 -0.4001 -0.0796
vn -0.9130 -0.3769 -0.1561
vn -0.9130 -0.3392 -0.2266
vn -0.9130 -0.2884 -0.2884
vn -0.9130 -0.2266 -0.3392
vn -0.9130 -0.1561 -0.3769
vn -0.9130 -0.0796 -0.4001
vn -0.9966 -0.0000 -0.0827
vn -0.9966 0.0161 -0.0811
vn -0.9966 0.0317 -0.0764
vn -0.9966 0.0460 -0.0688
vn -0.9966 0.0585 -0.0585
vn -0.9966 0.0688 -0.0460
vn -0.9966 0.0764 -0.0317
vn -0.9966 0.0811 -0.0161
vn -0.9966 0.0827 -0.0000
vn -0.9966 0.0811 0.0161
vn -0.9966 0.0764 0.0317
vn -0.9966 0.0688 0.0460
vn -0.9966 0.0585 0.0585
vn -0.9966 0.0460 0.0688
vn -0.9966 0.0317 0.0764
vn -0.9966 0.0161 0.0811
vn -0.9966 -0.0000 0.0827
vn -0.9966 -0.0161 0.0811
vn -0.9966 -0.0317 0.0764
vn -0.9966 -0.0460 0.0688
vn -0.9966 -0.0585 0.0585
vn -0.9966 -0.0688 0.0460
vn -0.9966 -0.0764 0.0317
vn -0.9966 -0.0811 0.0161
vn -0.9966 -0.0827 -0.0000
vn -0.9966 -0.0811 -0.0161
vn -0.9966 -0.0764 -0.0317
vn -0.9966 -0.0688 -0.0460
vn -0.9966 -0.0585 -0.0585
vn -0.9966 -0.0460 -0.0688
vn -0.9966 -0.0317 -0.0764
vn -0.9966 -0.0161 -0.0811
vn -0.9660 0.2390 0.0990
vn -0.9660 0.2151 0.1437
vn -0.9660 -0.2586 -0.0000
vn -0.9660 -0.2537 -0.0505
vn -0.9660 0.1829 0.1829
vn -0.9660 -0.2390 -0.0990
vn -0.9660 0.1437 0.2151
vn -0.9660 -0.2151 -0.1437
vn -0.9660 0.0990 0.2390
vn -0.9660 -0.0000 -0.2586
vn -0.9660 0.0505 -0.2537
vn -0.9660 -0.1829 -0.1829
vn -0.9660 0.0505 0.2537
vn -0.9660 0.0990 -0.2390
vn -0.9660 -0.1437 -0.2151
vn -0.9660 -0.0000 0.2586
vn -0.9660 0.1437 -0.2151
vn -0.9660 -0.0990 -0.2390
vn -0.9660 -0.0505 0.2537
vn -0.9660 0.1829 -0.1829
vn -0.9660 -0.0505 -0.2537
vn -0.9660 -0.0990 0.2390
vn -0.9660 0.2151 -0.1437
vn -0.9660 -0.1437 0.2151
vn -0.9660 0.2390 -0.0990
vn -0.9660 -0.1829 0.1829
vn -0.9660 0.2537 -0.0505
vn -0.9660 -0.2151 0.1437
vn -0.9660 0.2586 -0.0000
vn -0.9660 -0.2390 0.0990
vn -0.9660 0.2537 0.0505
vn -0.9660 -0.2537 0.0505
vt 0.000000 0.000000
s 1
f 66/1/66 65/1/65 43/1/43 44/1/44
f 68/1/68 67/1/67 57/1/57 58/1/58
f 69/1/69 66/1/66 44/1/44 45/1/45
f 70/1/70 68/1/68 58/1/58 59/1/59
f 71/1/71 69/1/69 45/1/45 46/1/46
f 72/1/72 70/1/70 59/1/59 60/1/60
f 73/1/73 71/1/71 46/1/46 47/1/47
f 75/1/75 74/1/74 33/1/33 34/1/34
f 76/1/76 72/1/72 60/1/60 61/1/61
f 77/1/77 73/1/73 47/1/47 48/1/48
f 78/1/78 75/1/75 34/1/34 35/1/35
f 79/1/79 76/1/76 61/1/61 62/1/62
f 80/1/80 77/1/77 48/1/48 49/1/49
f 81/1/81 78/1/78 35/1/35 36/1/36
f 82/1/82 79/1/79 62/1/62 63/1/63
f 83/1/83 80/1/80 49/1/49 50/1/50
f 84/1/84 81/1/81 36/1/36 37/1/37
f 85/1/85 82/1/82 63/1/63 64/1/64
f 86/1/86 83/1/83 50/1/50 51/1/51
f 87/1/87 84/1/84 37/1/37 38/1/38
f 74/1/74 85/1/85 64/1/64 33/1/33
f 88/1/88 86/1/86 51/1/51 52/1/52
f 89/1/89 87/1/87 38/1/38 39/1/39
f 90/1/90 88/1/88 52/1/52 53/1/53
f 91/1/91 89/1/89 39/1/39 40/1/40
f 92/1/92 90/1/90 53/1/53 54/1/54
f 93/1/93 91/1/91 40/1/40 41/1/41
f 94/1/94 92/1/92 54/1/54 55/1/55
f 95/1/95 93/1/93 41/1/41 42/1/42
f 96/1/96 94/1/94 55/1/55 56/1/56
f 65/1/65 95/1/95 42/1/42 43/1/43
f 67/1/67 96/1/96 56/1/56 57/1/57
f 25/1/25 24/1/24 96/1/96 67/1/67
f 11/1/11 10/1/10 95/1/95 65/1/65
f 24/1/24 23/1/23 94/1/94 96/1/96
f 10/1/10 9/1/9 93/1/93 95/1/95
f 23/1/23 22/1/22 92/1/92 94/1/94
f 9/1/9 8/1/8 91/1/91 93/1/93
f 22/1/22 21/1/21 90/1/90 92/1/92
f 8/1/8 7/1/7 89/1/89 91/1/91
f 21/1/21 20/1/20 88/1/88 90/1/90
f 7/1/7 6/1/6 87/1/87 89/1/89
f 20/1/20 19/1/19 86/1/86 88/1/88
f 1/1/1 32/1/32 85/1/85 74/1/74
f 6/1/6 5/1/5 84/1/84 87/1/87
f 19/1/19 18/1/18 83/1/83 86/1/86
f 32/1/32 31/1/31 82/1/82 85/1/85
f 5/1/5 4/1/4 81/1/81 84/1/84
f 18/1/18 17/1/17 80/1/80 83/1/83
f 31/1/31 30/1/30 79/1/79 82/1/82
f 4/1/4 3/1/3 78/1/78 81/1/81
f 17/1/17 16/1/16 77/1/77 80/1/80
f 30/1/30 29/1/29 76/1/76 79/1/79
f 3/1/3 2/1/2 75/1/75 78/1/78
f 16/1/16 15/1/15 73/1/73 77/1/77
f 29/1/29 28/1/28 72/1/72 76/1/76
f 2/1/2 1/1/1 74/1/74 75/1/75
f 15/1/15 14/1/14 71/1/71 73/1/73
f 28/1/28 27/1/27 70/1/70 72/1/72
f 14/1/14 13/1/13 69/1/69 71/1/71
f 27/1/27 26/1/26 68/1/68 70/1/70
f 13/1/13 12/1/12 66/1/66 69/1/69
f 26/1/26 25/1/25 67/1/67 68/1/68
f 12/1/12 11/1/11 65/1/65 66/1/66
